<svg width="35" height="34" viewBox="0 0 35 34" fill="none" xmlns="http://www.w3.org/2000/svg">
<g clip-path="url(#clip0)">
<path d="M2.51794 20.7733C8.49583 24.2246 19.7061 31.0596 21.8703 32.232C24.4245 33.615 25.3209 31.462 25.3209 31.462C27.4822 27.7185 33.4683 19.9856 33.9929 17.6259C34.4964 15.3597 32.1423 14.336 31.349 13.9748" stroke="white" stroke-width="2"/>
<path d="M3.02161 21.0252C9.80528 22.8429 23.6422 26.6721 26.0612 27.3201C28.48 27.9682 28.8309 25.6834 28.8309 25.6834L30.5936 20.018L33.2647 9.74765C33.8904 7.41277 32.2978 6.53419 31.4232 6.38672" stroke="white" stroke-width="2" stroke-linecap="round" stroke-linejoin="round"/>
<path d="M0.755371 5.79133C0.755371 0.755371 0.755371 0.755371 5.66543 0.755371H25.9352C30.9712 0.755371 30.9712 0.755371 30.9712 5.79133V16.1151C30.9712 20.8992 30.9712 20.8992 25.9352 20.8992H5.66543C0.755371 20.8992 0.755371 20.8992 0.755371 16.1151V5.79133Z" stroke="white" stroke-width="2"/>
<path d="M10.4921 12.7611L14.0273 11.3108L10.4921 9.65898V8.62158L15.3266 11.0389V11.6633L10.4921 13.7986V12.7611Z" fill="white"/>
<path d="M15.9839 14.8561L17.5048 7.66473H19.5091C20.1873 7.66473 20.7278 7.79232 21.1306 8.04746C21.5336 8.29592 21.7349 8.70886 21.7349 9.28631C21.7349 9.77648 21.5938 10.1794 21.3119 10.4949C21.0299 10.8038 20.6405 11.0086 20.1436 11.1093V11.1496C20.4726 11.2369 20.7378 11.3981 20.9393 11.6331C21.1474 11.8681 21.2515 12.1736 21.2515 12.5496C21.2515 13.0734 21.1273 13.5064 20.8789 13.8489C20.6371 14.1913 20.3047 14.4465 19.8817 14.6144C19.4587 14.7755 18.9786 14.8561 18.4414 14.8561H15.9839ZM18.1594 10.5957H19.0558C19.4453 10.5957 19.7676 10.5117 20.0227 10.3439C20.2846 10.1693 20.4155 9.89735 20.4155 9.52805C20.4155 9.27289 20.3316 9.07816 20.1638 8.94387C20.0026 8.80287 19.7474 8.73236 19.3983 8.73236H18.5522L18.1594 10.5957ZM17.4745 13.7784H18.5119C18.9551 13.7784 19.3043 13.6743 19.5594 13.4662C19.8146 13.258 19.9422 12.9558 19.9422 12.5597C19.9422 12.2777 19.8582 12.0527 19.6904 11.8849C19.5225 11.717 19.2506 11.6331 18.8745 11.6331H17.9378L17.4745 13.7784Z" fill="white"/>
</g>
<defs>
<clipPath id="clip0">
<rect width="35" height="33.5151" fill="white"/>
</clipPath>
</defs>
</svg>
